<svg id="9d515f69-8bd6-4e9e-8841-b68d41461638" data-name="Layer 1" xmlns="http://www.w3.org/2000/svg" viewBox="0 0 900 450"><title>Artboard 1</title><path d="M103.29,201.51H14.67l22.72-22.72V47.49L14.67,24.78H97.05c35.44,0,68.39,12.23,68.39,43.43,0,19-16,33.7-34.95,39.44,22.72,4,43.69,21.47,43.69,45.43C174.18,190.27,135.49,201.51,103.29,201.51ZM95.8,46.75H84.32v53.41H95.8c13.48,0,21.46-8.23,21.46-26.71S108.78,46.75,95.8,46.75ZM102,122.13H84.32v57.41H102c9.73,0,24-8,24-28.7C126,129.87,115.27,122.13,102,122.13Z"/><path d="M192.22,201.51l22.71-22.72V47.49L192.22,24.78h92.35L261.86,47.49v132h35.46L325,151.83v49.68Z"/><path d="M434.2,201.51,456.67,179l-6.74-23.71H397.51L389.27,179l22.46,22.47H343.09l23-23L421,24.78h33.95l56.16,153.76,23,23ZM426,75.2l-20.47,58.16h37.95Z"/><path d="M817,201.51V179.29L771.57,109.9v68.89l22.12,22.72H703.75l22.12-22.72V47.5L703.75,24.78h89.94L771.57,47.5v56.91l57.12-58.66-20.42-21h69.28L813.14,90.93l72.19,110.58Z"/><path d="M139.48,425.22l22.72-22.71V298.17L112,388.53,61.85,297.92V402.51l22.72,22.71H14.67l22.72-22.71V271.21L14.67,248.49H85.31L126,320.88l40.69-72.39h65.15l-22.72,22.72v131.3l22.72,22.71Z"/><path d="M334.86,425.22l22.47-22.46L350.59,379H298.17l-8.24,23.72,22.47,22.46H243.75l23-23,54.91-153.77h33.95l56.16,153.77,23,23Zm-8.24-126.3-20.46,58.16H344.1Z"/><path d="M591.37,348.59v67.64c-22,9-36.7,12.73-62.16,12.73-47.92,0-97.1-38.93-97.1-92.1,0-54.92,49.18-92.11,97.1-92.11,21.47,0,35.45,3,54.67,12.73V309.4l-31.7-31.7c-7.24-7.24-13-11-23-11-33.94,0-43.93,37.45-43.93,70.15s5,70.14,43.93,70.14c6.24,0,10.74-2.5,15.23-5.24V348.59l-22.71-22.72h92.35Z"/><path d="M628.22,425.22l22.71-22.71V271.21l-22.71-22.72h92.36l-22.72,22.72v131.3l22.72,22.71Z"/><path d="M828.28,429c-47.66,0-89.6-40.68-89.6-92.1s39.33-92.11,89.6-92.11c22.4,0,37,2.49,57.05,13V309.4l-33.08-31.7c-7.56-7.24-13.55-11-24-11-28.39,0-34.12,26.71-34.12,70.15S799.89,407,828.28,407c10.42,0,16.41-3.75,24-11l33.08-31.71V416C865.27,426.72,850.68,429,828.28,429Z"/><path d="M623.09,205.25c-47.67,0-89.6-40.69-89.6-92.11S572.82,21,623.09,21c22.4,0,37,2.49,57,13V85.69L647.05,54c-7.55-7.23-13.54-11-24-11C594.7,43,589,69.71,589,113.14s5.73,70.15,34.12,70.15c10.42,0,16.41-3.75,24-11l33.09-31.7v51.67C660.08,203,645.49,205.25,623.09,205.25Z"/></svg>